<mxfile host="Electron" modified="2024-04-10T04:00:57.939Z" agent="Mozilla/5.0 (X11; Linux x86_64) AppleWebKit/537.36 (KHTML, like Gecko) draw.io/24.1.0 Chrome/120.0.6099.109 Electron/28.1.0 Safari/537.36" etag="6I0PTApKHTmkelxH9yoi" version="24.1.0" type="device">
  <diagram name="Página-1" id="-0-OwX0cJR-1dIrujoul">
    <mxGraphModel dx="3328" dy="1448" grid="0" gridSize="10" guides="1" tooltips="1" connect="1" arrows="1" fold="1" page="0" pageScale="1" pageWidth="827" pageHeight="1169" background="none" math="0" shadow="0">
      <root>
        <mxCell id="0" />
        <mxCell id="1" parent="0" />
        <mxCell id="yZR8awEWsIdqO6TwHlMT-84" value="" style="rounded=0;whiteSpace=wrap;html=1;shadow=0;glass=0;gradientColor=none;strokeColor=#000000;fontFamily=Courier New;fillColor=none;fontSize=15;fontColor=#000000;" parent="1" vertex="1">
          <mxGeometry x="-1433" y="-287" width="1479" height="983" as="geometry" />
        </mxCell>
        <mxCell id="yZR8awEWsIdqO6TwHlMT-61" value="Amazon Web Services Region: sa-east-1 | workspaces tst e prd" style="sketch=0;outlineConnect=0;gradientColor=none;html=1;whiteSpace=wrap;fontSize=15;fontStyle=0;shape=mxgraph.aws4.group;grIcon=mxgraph.aws4.group_region;strokeColor=#000000;fillColor=none;verticalAlign=top;align=left;spacingLeft=30;fontColor=#000000;dashed=1;rounded=0;fontFamily=Courier New;" parent="1" vertex="1">
          <mxGeometry x="-766" y="-86" width="783" height="330" as="geometry" />
        </mxCell>
        <mxCell id="yZR8awEWsIdqO6TwHlMT-83" value="" style="shape=image;verticalLabelPosition=bottom;labelBackgroundColor=default;verticalAlign=top;aspect=fixed;imageAspect=0;image=data:image/svg+xml,PHN2ZyB4bWxucz0iaHR0cDovL3d3dy53My5vcmcvMjAwMC9zdmciIGZpbGw9Im5vbmUiIHZpZXdCb3g9IjAgMCA2NCA2NCIgaGVpZ2h0PSI4MDBweCIgd2lkdGg9IjgwMHB4Ij48cGF0aCBmaWxsPSIjNDA0MEIyIiBkPSJNMzguMDYgMjYuMTUxdjExLjQ3M0w0OCAzMS44OTFWMjAuNDA2bC05Ljk0IDUuNzQ1eiIvPjxwYXRoIGZpbGw9IiM1QzRFRTUiIGQ9Im0yNy4wMyAyMC40MDYgOS45NCA1Ljc0NXYxMS40NzNsLTkuOTQtNS43NFYyMC40MDd6TTE2IDE0djExLjQ3OWw5Ljk0IDUuNzR2LTExLjQ4TDE2IDE0em0xMS4wMyAzMC42MjQgOS45NCA1Ljc0di0xMS40OGwtOS45NC01LjczOXYxMS40OHoiLz48L3N2Zz4=;clipPath=inset(19.67% 23.33% 16% 23%);rounded=0;fontFamily=Courier New;imageBorder=none;imageBackground=none;shadow=0;fontSize=15;fontColor=#000000;" parent="1" vertex="1">
          <mxGeometry x="-1348" y="334" width="152" height="182.21" as="geometry" />
        </mxCell>
        <mxCell id="yZR8awEWsIdqO6TwHlMT-85" value="&amp;nbsp; &amp;nbsp; Projeto API RESTful (foundation)&amp;nbsp; &amp;nbsp;&amp;nbsp;" style="text;html=1;strokeColor=none;fillColor=none;align=center;verticalAlign=middle;whiteSpace=wrap;rounded=0;fontStyle=1;fontSize=50;fontFamily=Courier New;labelBackgroundColor=#6666FF;fontColor=#FFFFFF;labelBorderColor=none;" parent="1" vertex="1">
          <mxGeometry x="-1164" y="-283" width="1207" height="63" as="geometry" />
        </mxCell>
        <mxCell id="yZR8awEWsIdqO6TwHlMT-96" value="&lt;h1 style=&quot;font-size: 15px;&quot;&gt;&lt;font style=&quot;font-size: 15px;&quot;&gt;API RESTful Foundation&lt;/font&gt;&lt;/h1&gt;&lt;p style=&quot;font-size: 15px;&quot;&gt;&lt;font style=&quot;font-size: 15px;&quot;&gt;&lt;span style=&quot;font-size: 15px; white-space: pre;&quot;&gt;&amp;nbsp;&amp;nbsp;&amp;nbsp;&amp;nbsp;&lt;/span&gt;&lt;font style=&quot;font-size: 15px;&quot;&gt;IaC para implmentação da fundação do projeto principal. Este reposotório visa criar os elementos que serão o alicerce para provisionamento posterior dos recursos de Cloud do Projeto principal.&lt;/font&gt;&lt;/font&gt;&lt;/p&gt;&lt;p style=&quot;font-size: 15px;&quot;&gt;&lt;font style=&quot;font-size: 15px;&quot;&gt;&lt;span style=&quot;background-color: initial; font-size: 15px;&quot;&gt;Github:&amp;nbsp;&lt;/span&gt;&lt;/font&gt;&lt;span style=&quot;background-color: initial; font-size: 15px;&quot;&gt;github.com/dellabeneta/ntconsult-iac-api-foundation&lt;/span&gt;&lt;br style=&quot;font-size: 15px;&quot;&gt;&lt;/p&gt;&lt;p style=&quot;font-size: 15px;&quot;&gt;&lt;font style=&quot;font-size: 15px;&quot;&gt;&lt;span style=&quot;font-size: 15px;&quot;&gt;&lt;span style=&quot;white-space: pre; font-size: 15px;&quot;&gt;&amp;nbsp;&amp;nbsp;&amp;nbsp;&amp;nbsp;&lt;/span&gt;&lt;/span&gt;&lt;br style=&quot;font-size: 15px;&quot;&gt;&lt;/font&gt;&lt;/p&gt;&lt;div style=&quot;font-size: 15px;&quot;&gt;&lt;br style=&quot;font-size: 15px;&quot;&gt;&lt;/div&gt;&lt;p style=&quot;font-size: 15px;&quot;&gt;&lt;/p&gt;" style="text;html=1;strokeColor=none;fillColor=none;spacing=5;spacingTop=-20;whiteSpace=wrap;overflow=hidden;rounded=0;fontFamily=Courier New;verticalAlign=top;align=left;fontSize=15;fontColor=#000000;" parent="1" vertex="1">
          <mxGeometry x="-1357" y="-31" width="533" height="181" as="geometry" />
        </mxCell>
        <mxCell id="dYA1yyI_5aB2j3IZ9VFg-1" value="" style="shape=image;verticalLabelPosition=bottom;labelBackgroundColor=#FCFCFC;verticalAlign=top;aspect=fixed;imageAspect=0;image=data:image/png,iVBORw0KGgoAAAANSUhEUgAAAgAAAAGjCAMAAABtxl0VAAAArlBMVEUAAAAAAAAAAAAAAAAAAAAAAAAAAAAAAAAAAAAAAAAAAAAAAAAAAAAAAAAAAAAAAAAAAAAAAAAAAAAAAAAAAAAAAAAAAAAAAAAAAAAAAAAAAAAAAAAAAAAAAAAAAAAAAAAAAAAAAAAAAAAAAAAAAAAAAAAAAAAAAAAAAAAAAAAAAAAAAAAAAAAAAAAAAAAAAAAAAAAAAAAAAAAAAAAAAAAAAAAAAAAAAAAAAAAAAABeyFOlAAAAOXRSTlMABAgLDxQYHSEkKi82O0BFSE5SV1tfZGpvc3h9gIOHjJCTmJugpaqwtLm/xcvO0tfa3eHk6Ozx9fl0zHYlAAAeHUlEQVR42uzbiXKiQBSF4Qu4BkXUKBoX3HBBTcyowHn/F5uaJDVJHOkOSk8Ver9H+A9FUQ0Q+28Mu9vv1E2DS9ylnBvg3X496z1W85zkrpivOBFs50OnVtK4zT0oHxEj9Ft8Ddw8bQuBF5ML3bhHCIUWJ7ptPsSORW50y7QQEh5HumVlyER8C7hlNqTaXCmTSv31/rCdVEnIgdSYW2aQ7kZ4tyqSgAupGdfMnvIWfx1MireA1IhzZk4jwBf7AsV6hlSHe2aMNsJ3vkZxQkjVuWi2FNc4NaAYBcg9cNJMsY/4l03nVSGnc1NlcqWK3eo8DUZTb75YLJerxdybTcaDbrtRMwsaJacNEh3otiC155lSp5VtZ+j5rxGEov1mOe42zBz9WMHHeWuNzhlAyue9UqSZLXe5i5DMcT3pWHmSsw6I49I5HqSmvFo69ErHe45wuRrJ9KKED/PaBlJPPN31Cs3xJsKVciSWX0EkKNEX5Wbf2xwAuSbPd518Y/yCFLySWGUPsa1Ob3SrvwrwYxWe8AqV3jpCOpYkVAshMyGigrMMkQh/I3wpvT47ID0jEikGkHOcNZI68pAXMRpegFR1SWQORTa8ZXKa7YVI2yMJFCMosiABw7RMPig8Zbp7KGCTQBvKrCyKUVtFAMJFlTf/ZLQ3UMMiARcK+RU6IzcHPkz5LvDBHAdQpUoCEyjllcQ/lK34D6I/6j4UskhgCLXCnk7fOCF/NfSd4eyg0tEkgSZU21Xpk+HhRIPuW65/VJvfMUgkF0K5kU4fHl5wKijTHcsPAqj0q62RhAv1nk160woFB813KD8MoFI0MEjK2EG9sE1E+pRfG39l9AIotX2gnzBDQL2ZXv7d3p1oN6qjaxj+MeB5djwncRzP8wz67v/Gzjq9urp3dTlIwggEpecC9q6F39ggCekgMVKVfVb/BrUmFonpIQ4HDz/xy/TXaZ2gltcmYQsk7GTT36W8gWL3ComzT1DMvEn+T86EQbFrSS5IH0qZF4n/6e0O1a5FktNFwvwK/SWKGyh3L5OsGRJ2duhvYA19KMdqJC13QMKW9Bco77X9PS15UMq8S0xEfV/jO+oOEsYqlG2FDeJwdSiUJkSZRYShtB+IRSP0vq+Jq1N25aZQgz3u18v5fLneHv4L91K5A5I3yfTOO1G67Zdfo26zWnIt+gfLKVYcCuUbGthQVnU8RMPfz0atco6i1oYOdpRN1ici4O8mnbJFSuQfMN8AyjgbvOqx7FctUmcJwNwDKFI+4yVsM6iQWm3ooUYZ1PTwgvusZZNq9hXy/ON6Nvl4/5wud3dzC/CzPkNot2ndohh8QtJ19lamf3Ab4y0zE4LRvnbhzesUj6IPGdfPCj3hvG0YXsE6lDm5BULavNkUlwUk7FoW/aTw+UBo9zpljrNFKI9JieJTgbhdnQI5Yw/hbPOUOe4eYRy7OVLF7s63u+Xkt5P9lhB17RBXfo4wPizKnPwRIWwapE7/gV/YZTMdtio2lSHq2yERjStkPZqUPYUz5C0rpI61xJ9uV4h5tEiQs4ScXYGyp3hR/PHLm+MFxyKJG8q+wJI9hQtkrSukVAsv2Doko+0D4t8sGZQ/Q9KuTortEd46R3IaPsTsi5RB7glybh1SrYTwNjmS1WAQMc1RBrlH+be4lXtDaHtb2RrTEmWQvYOUTYli8I6wbnkKYwwB75Q91hoy7m8Ui3nEr5nwrcF3ouyZQcbcpXjsENKYQnLvf+W5UmNIuLcoLneEs7eUrjMZUca8QcIqT3Gxk3hdZ/X3nStU8yHM7yc+56f43J8iAw+zKUsKdwg7VShGbYTi5+kVU3A1KENyewhbxJv+UMFZE3x5Bp4PypA5RLEBxesbYbCi8keiDWXHAKIeDYrZBmGs1N96PCgzqkxibjVuF4TRimEKqkAZ4V4haG1T3CyGEDwrhnuPFmXECoJmFsWuhDAWcfyPh1m6AdB2/qOBMN7odSdwfFMmVBiEsB4loY8wCnE8fmwoC3JHCGFvlIgJQrhRBLoZnhCUv8Csrc8NCt86ljFov98sWZRyNQhhLUrIASF8UgRyEMAum+9Ru2JTStlnzT9/OiOEPkXhCnH33ayTy+4PQIcSs0cIrUT+1/e3rA4B9ik5s+Q27FhD1jeli3UEdF/70kQIlaT2H/qgVBnJTKym6S6wTFFYQF6VUqTgQ8DK0vNnSn0AS8hbZ24O4GBTwjosob/DNeQxh1KjAQG3AiWudoakRnLr0evZugP0q6QB6211g4yuqnEAvrdsTQL2SBd2pTWcbs4MIt6TW4nQppRwHuCbkW6sYqP/uY/lML8ywqhmaR/AfY601Illnq6DMNwMPQJ6xdTOYDlJTUR7WXoRtKNtvbFMBhyyfHpQiYFrRtrywTGll7mZPkNwAa6LTdo6guNKL+shjE9KhTIDVy3V/dYSeiGll5kvgC/S2Ej971cBodSzcgdwsdM9iu079JoPhFLIyiNAg3TmKF/EYD8QBqM0KDDwzElvB/Dc7SReSj9lZBDw4ZLepuAaKxgoz8ZyANsDT5801wKXX1AwCsjzlY1pwKOlfcRM6RYBFYZwBpQC5yzsfrNROZRtHRBSi/TXzMQPWR98XiHmHwCgTBn422Fl0l+eqZvObiO0HGmvCJ4ZpcFG2T4RVR9hXbPwDOgXKAXye1WHOpfuCG1F2rPu4JhSCjTuqmbnSleE1yXttQR22NTfmIEjbM+VG8K75kh7qwx8AbgbSFjasZ2Y3iTtuQzBWIF0V7tByqFEokYML+hn4fF5TrobMkjyeiSksIGgrV1uDafrM8N/XZuUAru0j2Q4K3CEPdzI6nvSr55ZxXrvc3l4sPu6l6MUKKZ957PqBaGwL5eCtY4QtqO0GqV8FqDPEJY/KdCPrPYeEuqUVgcEO5PWvvEKtm7b9Ezp/QoZa0qrUrpnM9/xKn/VL9NvnObnEXJYObO/AL6T+j1t+bzd/L3fabXa3eFkdYa8L0qtXaqfARfQws2htMqDo0Yay/nQQotSq5fqW8AKtLCg9Foi2Jh01jA/AC+yPAQrks5q0EGdQukWKXn1dI9v5aGBdwol793KlLiPlC9pPiBxm/A/vo+K9g+BedJbD0k7Oy+swnlUKVkOS/kMh7VHwlYUSv4OAPCSLaD8mfpD0EoeEjYIFe4GAJDkr0C5v7yDp0TaayNhrPbSayb3EsXP7cxvEHCmFPhCwq7uS4uwrnmKV3m0YxAzoRSwdkjY+rW9zg8Oxac6OUNcg9Kg8EDCRq/tdb+xKB6VyRUy/BylQhMJY/XXljDNKQaF0QmSNpQSn0jYPU+irEkSJzBZnQ2DtBGlhLXFjx6Iw9YiMfkNnmBNUqn4ec/2LueUv+MHS7vHEIMPEtK84ymvRMo01gjHsyg16gzPsD4RVa+IQZP43Dl+cnJIiVzviLA2lCJjPHGp0v9z11DvZhNHbviIe0dpe3hTN82p/+YQK5f+re8nPiRs929x7yjsjB8KvtR05d7wOzai/yptodqegow8cPgVipQ9euA1DqVKjeGfbjX6Te8BtZj14u41J5uiY/XveNGZUqaPf9i49D/cKYNSeU4AcR4z3TrjZUvSFX+IjY3pifISKrmcAOL70S1vEYEhpU55yQAAmyo9V11BmQcF2ULAzaUI2BOGKDQohdzWYNDOJzJvsKQgh9heMGjdEA2XsqiR0OLwW0yvGOWXiMiVMqkPaYfh7fW1gS0GEVebXtJ5ICoryqQJpLDdqERUZ+A5uRSs6as/YcyZIzrvlEkriDtO247gLiq7PPE0meqNBmpX88Ir1xEiHrvZsO7Qf60RaGIRX5tBwJbCGjFEqUCZ5IFrVHbof7lX/MxrkZCeyr88Z41IPSiT8uCr0BNVhp8cipEeO3eyKITyGdHaUCbVwGfLHaozzZGwuarNRVseIvZJmfQGrpvUTgrem+wSdhWH2w0RIf8wHzXzlE3v4Xd8dC7407FMUvJXBWsxrSkiclm9d8oWZdgC4c/HrPj4X3ObJFV8cD1skpFbIgKn+aDmUObtwDUWHkX0e4qGIkckwd7iRd5mXHfo73AH15vo98e5QmEso/0KcHZ4hbceVujvYb+2GD63xX8tHQrFuUT5IODsEd7hs27RX6X44iyoPcO/+X2Vj6Jn9Z8/2w6K9NfJg8ujQNX5HcB5ovgQ4jYJsXcIZ9t36a/kgedAPG7RoZfkTuDZie8zIu80KtDfaqnFUsg6uCokYAl5/rxGf7E6eD4oBnPwfKs5zvgydOhfzFdAotPg7gMcnq1gcdOubdHfzjki0COnycq0HnE0GORs62RwT5gcUCysMzj2FKxwh5Sd+fh/6ezwo42ly3G9KFOQ3B4yjk3zuf+DW+99LA8e/rB1KC771+5G55Bw75nf/mfc6tt4vr3hF29kabSz1YUCdCGOTR3zWQf515Gvq/X0zaY47cFRi2aD3GPVfMRaaoNjGsUW2Wxsvv01ZV1Cv5v1AVEn8+evrwE4qi8flvidM5dZX7YXbmGudYAYr2MucqqPPT7RUyOIuVTMJdZbBWGObCsxCNm65grrbh9mZdgaQhbm7j/9t4Gr8FucfJmrmwIuk96s1zpDxLu5uKmwkR4MHEDEyFzadOjKfpD23fz9Z4nLJN/RHpvf/2zZyt0EuB74FuayZuc5oCp/Ns7ODP+mSElqD3rHA9fNjP+kykXm63wELmam/9LlW2I6IHcDV89c0mwtC3HkdhlbmSuaMq7Elt0HcwOQQSfhTfur4DKLv9NnhkBzmZXgc3M506cr+oKQ44Pjbn4AsrcqxKdfeuYJIJMsX3BV0A4ce3MxU2kndl9XBI95+zOTQ0F90XnAjbmU6dQXm9s9gMOMAadUXWhsr2jGALMqLzQbMABHzVzJbG5d54kdPLk11zG1DgLTQTZDsLa5jlnduKwssqPMzbwGkl4TgfnAL/n9ZLIvX3sbTWbLzXa73ayX0/d+s2xlcF1gV2DOECVSozrj+55OPj+G3VYtTz/qz0LK01NWfby540/+ftqy6U/l2YuqpE6HPyHsItiOFHmDDG8/6xbomRVCKj/P8oGfsVXLivzI6LfkTjL7ELgF6KsLQNqul1MbQGMHnms/l6IASvxdgz8QLK9RAMCtqzCA0gYiLs30BOAg0JI/CrAjrQIA1q6qAPq+7PY4+gdAjDvJ4yHQSLcAcCkpCcBaQNzOSUsAD96fdwnBqtoFgFtBQQC5DWTs7ZQEcEaQI/ce8EH6BYCjHX0AS8hZpSSAA4JcuGsBljoGgO/IAxhB1iAdAewQ5MYtf6hlAKhFHECFQZZfSEUAWwTxuNNFNT0D2EYcwA7ylqkIYI0gPu8hgOX0DADVSANoIoxSGgJYcQJwEehImgYwjTSALZ64jOv5nOVWe2uGp6ZZCKCKQAtdA7hFGUART3xa9EtpjWceVuoDYNRBoHHcAbDWf7R74/kRPylFGMAQf5oITKs3MxDAAIE6sQdAvyt9c/9lKzyxcPisgBulR05gZc1XBm4CPxGomlAA/F+KcXAAc5Jw449/5D386ZCCADYI4tEcgdzkA6AvPPMdXQA5kSNVvn58Rir0ntk+n85+ppTcOMCd+w2hQQB5hicW0QWQF5kErUiewjzVZJe9PYJcOYFckgqAP5y9jC6AAp5o834n2OO8r+sfwAlBznRAkJ0WASwVfwO4eMJ/o9/NL4ftajH9GPY6zWo5b1MAjQK4IciBLgiy1iMAxfcAFsMz+55LPPoH4CPIlh4IstQigJ3qp4AznmO7j6aT7gByCLQiD0FmOgTgMjzRiTCAJQKcZr1SegMoINCcfASZ6hDAJ54pRRhADxz3Zb+YzgCqCPRFDEG+NAigzvDElSIMIM/Ad5k2c+kLoIlAI04Ak8QDsHo+nplwAgDjmIRYD+YtO3bKAughUE/rAKxKb3bDc2VOAHInX1QgyptXUxXAJwI1tbsHwPKX9YkF3b1GGgDNIG7fTlEACwSq0kODpwB5rBxxAM4VEo7N1ASwQ6AC3RFkoWkAHxRxAFTxIGPppiSAB4Iw0mEkUN7OijwAaviQcW+kIgAXgc6kwVyAvLNL0QdA9QdksH4aAqgh0IY3XXzWMYBzgVQEQMUDpAxTEEAPgWa8q+dpGMDWJTUBkDVmkPGmfwBTBBpxDwpwdAuAjS1SFQBRaQEJfln7AHYI1OIOFJQ1C2BZIlIYAFFlwSBsr3sAls99tWXASUSnAG6TEpHiAIgK7zeI6moeQAWBmMU9WWyoTQC7cZWIYgiAyGrOHhBy1jyAPgId+dOF39oE4M1rEQcQxGpMThDQ1DuAOQIt+AsGdjr9BOyb4gHMcxwW8RTevrkRzPUO4CLw/e4jiJfAq2Gd4crHcwtbOACKhNueHhHgoXUARZFzYI4IVEpkOtiZMDy1zSkIgKM03OFHZZ0D6CGYI7AWopPQeoAmw1MrS0EAXKWpj+c6OgewRKCLyIqBr7gD4NU7UREAX3GHp0YaB2B5CLQQuRXbxx0A9+b+TU0ATrFSb3UH71/z1fYwoD/ktpwe9QugIbQJcBmBmJNUAHmPMwAbUQCD1fZw8fjvQ7gPPDHVOIAvBCsLjRa2kgqARnjuYEUawLfoO5FjPPGlcQBXBHqInSrzlVgAuSueG0cQAKezsui46oe+AdQQbC12uOQpsQCoi+f8fJQBtETv7Vw80dc3gG/BnS67CFZKLADriOe+ogwgjyfOluBbVg1tA7AeglsklRBsmFgA1MJzrCAZgPx4aVfw3+tqG0AHwa6CC0exSy4A2uK5WZQBTPHEoyi0uOJE2gawQbCZ8GxaMbkAqniOlXgB7PoC8gGvz53y9LshnphoG0AJHG3Rk8UwSi4AWgq8sLB6cb9Z64ZnLlWB89cq2gbwhWC+Tb+UEeyYYAAlhufK0QVAH3iKfZfol/KK8/OoWwCOJ3Eg+B3BqrEHwH+WWUUYQN7HD/aTXrPe7E32eK6tbQAjmdVsCwSbJRIA58OpRhEA5+syvYtC7TuCMVfigcFzkguAPvDcJsIA3AdCqWobwBAcG/oHhyHYMMEAnDueq0cXAHURxoR0DcC+g+NN6pHxYsUfAPchZRdhALSEvJ2lbQDv4PDsJ9c4QCfBAKwLnmtGGIBzgqxrnnQNoOBLLmbNg+MQfwD8W5R9hAFQ8QY5txJpG8AcPA363RYcrQQDIM5DWCQBUOUBGccCaRtAHTxn6Y3yDkkG0MBzJyvCAKh0hriFTdoGkDvJv9nuMnB04g+Af5P6FmUAZM8g6N4h0jeAD/D4rvzrVWcrwQAqAU8n0QVAVNtCgP/pkMYB1BhCvM/UBM8g/gD4Y5W9aAMgqi18BLuOXSKNA3Au4KrQH6wbODw3wQCKDE/dchEHQOR05jf85DytW0RaB7AA1ybcD8c3RcwuPUNPFUrP5YgoXworR88V2++L3Y391v9x+dEukDi39ESeVBuCr05PFBh4avSXcUqVar3RaNSrJYfSocFCT2EtwXOyyNBb6QG+Fj1VA9e7ucJ6c8+vzGHvwcOq5hrrzN6/tKlJB1wn21xlfVkbCNjRj07g+jaXWVu5NTh4t/Jd8HXMhU7357+gn1kXcHllc6nT/Pn7BQrQBd/JMRdbQ+4OQt4piHUC39qMBuineIKQc44CtSHgy1xv3VTvEFMnjh0EDMwV10vXh5gZ8dQA8yiQMtYXBN1d4lpAAGuZy66NwhaimoILivn8hrnwmmg/IGpKIkYQ4TfNpdeB/Q1hxxyJsE4Qwdrm6ievfoYwv0JiahDCeub6J8z5hoQuiZpCzIf5CBLVvkHCt0RYV4hZmsnh5JQ3kLHLkbg6BB1L5oNIhvPFZF9klTGBIM8MCSXBHj0gxauQlNwRombmZyBuVv8GOaxBkio+RF3q5iOJU65/gaweSetB3LdD6rh7IQOSttmHttuul7OPQbtik6jBnmtIfPbwBmkjCmEBcfceKdOHkAtJeyACl+WwakV0WzUlnsLHA/ImFIZ9hIR9gxTZQ0xdVQB83rJjxxFAbcEQwjT8OyYyNjVSoQxBc4UB8PmzquIAnN4eoXxTWE0GKdsmRW8CQb6tNAC+TU1hAPW5j3CmFN4Akk59h6Jl3SGqm3AAwKqoKoAuwvqiV0why5/XKUotCNsmHgD8gaIAeghpTC+xVpB3nVQpMkuIKyYeALB2tAqgTy/K7RDGfdZ2KAoug7h3DQLAuaRPAH6bXuYcEQ7bl+l1A0i46BAA7mVdArjXKAL5E0Jq0usOkFHXIQDcS3oEcCxSJAqX5AKoQMpciwBwdnUIYGUTKS5AfQATSPFtLQLAWoMAxhSdwimhAKw75HT1CADDpAN4NClK+WMyAbQgaatJAKyUbADbAkXL2SUSwAqyinoEgE2SAbB3i6JmrxIIwGWQ9a5JAGgkF8ClRgpY0/gDGEDaRZcAdokF8G2TGgMWdwAHyKtrEgBqyQRwbZAyzUe8AVQQwlyXABaJBPBlk0KlY6wBfCEE39YkAN+JP4BDjdSy5zEGYD0QRleTAPAWdwDewCLlul5sAbQRylaXAJbxBsC+XYpDaR9XACuEU4wygGHrl3anO/xcHBhEPWINYFOhmFhjFksAeYZw3iUCkD9QJFf/ukNMJb4ADg2KUWUfRwBDhHRRFcAvub4HEb24Ajh3KGZ9T30AR4RVVxwAUeEAAdN4Ajh3LYpdfq46gCpCmysLQO6c4W0cAZy6FiWiulMbwBShebbyAKjkgeumPoBdi5LTOSsMIPdAAA+BuuoDoCH4LLUBsFWdEmX1rsoC6CDIu4cg2xgCsG7gyqsMwJsUKXFW76wogDWClJcIVFQfAL2Dq6IugEPfJi1YnR0nAAWDABfqItB7DAFUwFVTFIA3q5JGqgsWeQAjBJnwlopcYgiAPPA0lASw7dqkmfzoEnEAJ96D/haB6jEEcABPM/oAjqMCaan+7UUYQBVBHhb3JnweQwDb2AM4vZdJX7nWwosqgG/uUosSbygg5gDU/wQc3yuku1xzepUNQH4QAB3+jwS6sf4EqL8JLJUoJcqDtfdqAB0EYY7A5dyqD8BT8RiYCVZ1sLi8EsBGYMl9HcGKGjwGFrIbAF++OS5TOAWGIH2hBWPvqgP4VDEUbHbB/H8job+rOQJdFAfgPMBzIxOAgkGAg+CSwbraAL7AtTUBhFIT+253GALNlQbQAt/UBBDKt+BHsuENBSgMoOGDr2cCCCPnCf6w9hGsqy6AAYOAsgkgjDfRfU8LCLZVFUBjBxEPMgGEsUGgpvhQXFFBAHb98wIxCxNAGAUE8nL0Hx8I9h5BAO9v/9btD96/NycGYR0TQBhjBFpKLBy+JPtyqG0CCOMscWd3Q7B6sq+HmwCiHwRgrsQDI+ZJBlAzAYQxk7mzbyKYZye5RYwJIATbk9l/L+cjWDe5AJomAAWDACjJvUG+TSyALZkAwtgi0En2HI1iQgGwigkgjCKCfdLvXHC8JxTAJ5kAwhjL3lnvEOySTAAHywQQygWB7pbk2hGgnkQAjxKZAMKoSz/Xl8ExTyAA1iQTQChzBGtLf2fAs+MPoEsmACWDAL4dYmVWN/YAemQCCKcb4hyOOji2MQfgt8kEoGYQAL1Q24kWYw3gWiUTQEhFcORDHXI/jjOAhUsmgLDeEWxPz3TAcYkvgEuLyAQQ2iXUn7LDwFGPKYDHKEcmgPDq4KjQUxtwzGMJ4DywiUwACgcBLmHPlfFs5QF48zoRmQBeYfshL04RPF21ARy/GhaRCeBFPXAcVj9g4NiqCsA/LEYNh4jIBPCyHdQphg9g9f2nr8nneNBtVlz6FxNAFEpQaKxkhxAiE0B0PqDQxQSgvStUqpsANNeAUnMTgOYWUMqzTQBac3yo1TUBaK0HxbYmAK3toFrRBKCxEpQbmwA09gnlLiYAfVk3qFc3AWiriRjMTADaWiAGnm0CyPIgAF/XBKCpPmKxNQFoaod4FEwAWiojJmMTgJY+EZOLCSDTgwB8NROAhpqIzcwEoKElYuPZJgDtuAzxeTMBpHAQgJ3E3MG1NQFoZw+eZYTLCgsmgPQNAryRGMsD19gEoJkJeJgT4e3kxQSgF+sOni2JegNfzQSglRa4BpE+UMxMAGkbBCiSsC24PNsEkK5BgCOJG4LvzQSgkQG4PiJeXLwxAWjkEPEHcAJfwQSgjQq47pHPLI9NANr4AteMZNTAdzYBpGgQAK3I/4uomQDSMwjg50jKHHwzE4AmVuBakZw2+DzbBJCalQA9kmMz8L2ZALQwAF+eJK3BtzEBpGUQYKfmJZOCCUADFfCNSFYBAsYmAA3UP/gKJG34wdejfxtF+E/ga35wtRL5KP4PZvKxd72kU/cAAAAASUVORK5CYII=;shadow=1;strokeWidth=1;textOpacity=0;fontColor=#000000;perimeterSpacing=0;imageBorder=none;fontSize=15;" parent="1" vertex="1">
          <mxGeometry x="-1382" y="-230" width="146.64" height="120" as="geometry" />
        </mxCell>
        <mxCell id="nPrlJxyCouMvn4I2jOru-2" value="Digital Ocean Cloud: DNS Zone Domain | api.dellabeneta.online" style="sketch=0;outlineConnect=0;gradientColor=none;html=1;whiteSpace=wrap;fontSize=15;fontStyle=0;shape=mxgraph.aws4.group;grIcon=mxgraph.aws4.group_region;strokeColor=#000000;fillColor=none;verticalAlign=top;align=left;spacingLeft=30;fontColor=default;dashed=1;rounded=0;fontFamily=Courier New;" vertex="1" parent="1">
          <mxGeometry x="-766" y="304" width="783" height="356" as="geometry" />
        </mxCell>
        <mxCell id="nPrlJxyCouMvn4I2jOru-38" value="" style="shape=image;verticalLabelPosition=bottom;labelBackgroundColor=default;verticalAlign=top;aspect=fixed;imageAspect=0;image=https://www.stickersdevs.com.br/wp-content/uploads/2015/03/amazon-web-services.png;fontSize=15;fontColor=#000000;fontFamily=Courier New;" vertex="1" parent="1">
          <mxGeometry x="-1157" y="267" width="326" height="326" as="geometry" />
        </mxCell>
        <mxCell id="nPrlJxyCouMvn4I2jOru-56" style="edgeStyle=orthogonalEdgeStyle;rounded=0;orthogonalLoop=1;jettySize=auto;html=1;fontFamily=Courier New;fontSize=15;" edge="1" parent="1" source="nPrlJxyCouMvn4I2jOru-44" target="nPrlJxyCouMvn4I2jOru-52">
          <mxGeometry relative="1" as="geometry" />
        </mxCell>
        <mxCell id="nPrlJxyCouMvn4I2jOru-57" style="edgeStyle=orthogonalEdgeStyle;rounded=0;orthogonalLoop=1;jettySize=auto;html=1;fontFamily=Courier New;fontSize=15;" edge="1" parent="1" source="nPrlJxyCouMvn4I2jOru-44" target="nPrlJxyCouMvn4I2jOru-55">
          <mxGeometry relative="1" as="geometry" />
        </mxCell>
        <mxCell id="nPrlJxyCouMvn4I2jOru-44" value="dellabeneta.online zone domain" style="image;sketch=0;aspect=fixed;html=1;points=[];align=center;fontSize=15;image=img/lib/mscae/DNS.svg;fontFamily=Courier New;fontStyle=0;fontColor=#000000;" vertex="1" parent="1">
          <mxGeometry x="-614" y="424" width="139" height="139" as="geometry" />
        </mxCell>
        <mxCell id="nPrlJxyCouMvn4I2jOru-50" style="edgeStyle=orthogonalEdgeStyle;rounded=0;orthogonalLoop=1;jettySize=auto;html=1;fontFamily=Courier New;fontSize=15;" edge="1" parent="1" source="nPrlJxyCouMvn4I2jOru-47" target="nPrlJxyCouMvn4I2jOru-48">
          <mxGeometry relative="1" as="geometry" />
        </mxCell>
        <mxCell id="nPrlJxyCouMvn4I2jOru-51" style="edgeStyle=orthogonalEdgeStyle;rounded=0;orthogonalLoop=1;jettySize=auto;html=1;fontFamily=Courier New;fontSize=15;" edge="1" parent="1" source="nPrlJxyCouMvn4I2jOru-47" target="nPrlJxyCouMvn4I2jOru-49">
          <mxGeometry relative="1" as="geometry" />
        </mxCell>
        <mxCell id="nPrlJxyCouMvn4I2jOru-47" value="&lt;span style=&quot;color: rgb(0, 0, 0); font-size: 15px;&quot;&gt;ntconsult-terraform-state-backend&lt;/span&gt;" style="sketch=0;outlineConnect=0;fontColor=#232F3E;gradientColor=none;fillColor=#7AA116;strokeColor=none;dashed=0;verticalLabelPosition=bottom;verticalAlign=top;align=center;html=1;fontSize=15;fontStyle=0;aspect=fixed;pointerEvents=1;shape=mxgraph.aws4.bucket;fontFamily=Courier New;" vertex="1" parent="1">
          <mxGeometry x="-612.06" y="29" width="99.04" height="103" as="geometry" />
        </mxCell>
        <mxCell id="nPrlJxyCouMvn4I2jOru-48" value="env/object:tst" style="sketch=0;outlineConnect=0;fontColor=#232F3E;gradientColor=none;fillColor=#7AA116;strokeColor=none;dashed=0;verticalLabelPosition=bottom;verticalAlign=top;align=center;html=1;fontSize=15;fontStyle=0;aspect=fixed;pointerEvents=1;shape=mxgraph.aws4.object;fontFamily=Courier New;" vertex="1" parent="1">
          <mxGeometry x="-180" y="-16" width="70" height="70" as="geometry" />
        </mxCell>
        <mxCell id="nPrlJxyCouMvn4I2jOru-49" value="env/object:tst" style="sketch=0;outlineConnect=0;fontColor=#232F3E;gradientColor=none;fillColor=#7AA116;strokeColor=none;dashed=0;verticalLabelPosition=bottom;verticalAlign=top;align=center;html=1;fontSize=15;fontStyle=0;aspect=fixed;pointerEvents=1;shape=mxgraph.aws4.object;fontFamily=Courier New;" vertex="1" parent="1">
          <mxGeometry x="-180" y="107" width="70" height="70" as="geometry" />
        </mxCell>
        <mxCell id="nPrlJxyCouMvn4I2jOru-52" value="&lt;font style=&quot;font-size: 15px;&quot;&gt;api.&amp;lt;zonedomain&amp;gt;&lt;/font&gt;" style="sketch=0;outlineConnect=0;fontColor=#232F3E;gradientColor=none;strokeColor=#232F3E;fillColor=#ffffff;dashed=0;verticalLabelPosition=bottom;verticalAlign=top;align=center;html=1;fontSize=15;fontStyle=0;aspect=fixed;shape=mxgraph.aws4.resourceIcon;resIcon=mxgraph.aws4.route_table;fontFamily=Courier New;" vertex="1" parent="1">
          <mxGeometry x="-192" y="387" width="60" height="60" as="geometry" />
        </mxCell>
        <mxCell id="nPrlJxyCouMvn4I2jOru-55" value="&lt;font style=&quot;font-size: 15px;&quot;&gt;etc.&amp;lt;zonedomain&amp;gt;&lt;/font&gt;" style="sketch=0;outlineConnect=0;fontColor=#232F3E;gradientColor=none;strokeColor=#232F3E;fillColor=#ffffff;dashed=0;verticalLabelPosition=bottom;verticalAlign=top;align=center;html=1;fontSize=15;fontStyle=0;aspect=fixed;shape=mxgraph.aws4.resourceIcon;resIcon=mxgraph.aws4.route_table;fontFamily=Courier New;" vertex="1" parent="1">
          <mxGeometry x="-192" y="507" width="60" height="60" as="geometry" />
        </mxCell>
        <mxCell id="nPrlJxyCouMvn4I2jOru-62" value="" style="sketch=0;pointerEvents=1;shadow=0;dashed=0;html=1;strokeColor=none;fillColor=#000000;labelPosition=center;verticalLabelPosition=bottom;verticalAlign=top;align=center;outlineConnect=0;shape=mxgraph.veeam2.dns;" vertex="1" parent="1">
          <mxGeometry x="-765" y="305" width="23" height="23" as="geometry" />
        </mxCell>
      </root>
    </mxGraphModel>
  </diagram>
</mxfile>
